<svg width="16" height="16" viewBox="0 0 16 16" fill="none" xmlns="http://www.w3.org/2000/svg">
<path d="M3.16537 12.589C3.16537 12.8577 3.24337 13.0743 3.39937 13.239C3.56403 13.4037 3.7807 13.486 4.04937 13.486H9.22337C9.5527 13.486 9.81703 13.3863 10.0164 13.187C10.2157 12.9877 10.3154 12.7233 10.3154 12.394L10.3284 8.13L7.00037 4.698H4.25737C3.9367 4.698 3.67237 4.79767 3.46437 4.997C3.26503 5.19633 3.16537 5.46067 3.16537 5.79V12.589ZM4.03637 14.5C3.49037 14.5 3.0397 14.3223 2.68437 13.967C2.32903 13.6203 2.15137 13.1783 2.15137 12.641V5.738C2.15137 5.14867 2.34203 4.66767 2.72337 4.295C3.1047 3.92233 3.59437 3.736 4.19237 3.736H6.83137C6.99603 3.736 7.16503 3.775 7.33837 3.853C7.52037 3.92233 7.67203 4.01767 7.79337 4.139L10.9394 7.389C11.0607 7.51033 11.156 7.662 11.2254 7.844C11.3034 8.026 11.3424 8.19933 11.3424 8.364L11.3294 12.459C11.3294 13.057 11.143 13.5467 10.7704 13.928C10.3977 14.3093 9.9167 14.5 9.32737 14.5H4.03637ZM10.7574 8.624H7.87137C7.4987 8.624 7.19103 8.507 6.94837 8.273C6.71437 8.039 6.59737 7.74 6.59737 7.376V4.438H7.48137V7.337C7.48137 7.45833 7.52037 7.558 7.59837 7.636C7.67637 7.70533 7.77603 7.74 7.89737 7.74H10.7574V8.624ZM5.14137 4.152V3.125C5.14137 2.64833 5.2887 2.25833 5.58337 1.955C5.8867 1.65167 6.27237 1.5 6.74037 1.5H10.2504C10.415 1.5 10.5884 1.539 10.7704 1.617C10.9524 1.68633 11.104 1.77733 11.2254 1.89L13.5394 4.139C13.6607 4.25167 13.7604 4.399 13.8384 4.581C13.9164 4.75433 13.9554 4.92333 13.9554 5.088V10.314C13.9554 10.9033 13.7647 11.3887 13.3834 11.77C13.002 12.1427 12.5124 12.329 11.9144 12.329H10.8614V11.315H11.8494C12.17 11.315 12.43 11.2153 12.6294 11.016C12.8374 10.8167 12.9457 10.5523 12.9544 10.223V4.828L10.5494 2.462H7.02637C6.76637 2.462 6.55403 2.54433 6.38937 2.709C6.2247 2.865 6.14237 3.073 6.14237 3.333V4.152H5.14137ZM13.3964 5.556H11.1474C10.7574 5.556 10.4324 5.43467 10.1724 5.192C9.92103 4.94067 9.79537 4.62 9.79537 4.23V2.098H10.7184V4.217C10.7184 4.347 10.7574 4.451 10.8354 4.529C10.9134 4.607 11.0174 4.646 11.1474 4.646H13.3964V5.556Z" fill="#000" />
</svg>
