<svg width="16" height="16" viewBox="0 0 16 16" fill="none" xmlns="http://www.w3.org/2000/svg">
<path d="M1.5074 2.58162C1.70641 2.35665 2.0194 2.15015 2.39949 2.15015H11.1346C11.4656 2.15015 11.7383 2.42388 11.7383 2.767C11.7383 3.11013 11.4656 3.38385 11.1346 3.38385H2.50717C2.42433 3.38385 2.35717 3.45101 2.35717 3.53385V13.4664C2.35717 13.5493 2.42433 13.6164 2.50717 13.6164H12.0548C12.1376 13.6164 12.2048 13.5493 12.2048 13.4664V10.2164C12.2048 9.87331 12.4775 9.59959 12.8085 9.59959C13.1395 9.59959 13.4123 9.87331 13.4123 10.2164V13.503C13.4123 13.865 13.257 14.1898 13.0545 14.4187C12.8555 14.6436 12.5425 14.8501 12.1624 14.8501H2.39949C2.0194 14.8501 1.70641 14.6436 1.5074 14.4187C1.30491 14.1898 1.14966 13.865 1.14966 13.503V3.49734C1.14966 3.13532 1.30491 2.81052 1.5074 2.58162Z" fill="#000" />
<path d="M13.8348 3.84189C14.0446 3.58139 14.4254 3.55593 14.6668 3.7851C14.8885 3.99566 14.9118 4.34654 14.7191 4.58581L10.1827 10.2175L9.34869 10.3681V9.4111L13.8348 3.84189Z" fill="#000" />
<path d="M3.66218 6.63779C3.66218 6.29466 3.93492 6.02093 4.26594 6.02093H8.68798C9.019 6.02093 9.29173 6.29466 9.29173 6.63779C9.29173 6.98091 9.019 7.25464 8.68798 7.25464H4.26594C3.93492 7.25464 3.66218 6.98091 3.66218 6.63779Z" fill="#000" />
<path d="M3.66218 9.7052C3.66218 9.36208 3.93492 9.08835 4.26594 9.08835H7.42454C7.75556 9.08835 8.02829 9.36208 8.02829 9.7052C8.02829 10.0483 7.75556 10.3221 7.42454 10.3221H4.26594C3.93492 10.3221 3.66218 10.0483 3.66218 9.7052Z" fill="#000" />
</svg>
