<svg width="24" height="24" viewBox="0 0 24 24" fill="none" xmlns="http://www.w3.org/2000/svg">
<path fill-rule="evenodd" clip-rule="evenodd" d="M17.3861 5.35263C17.7897 4.94911 18.4439 4.94911 18.8474 5.35263C19.2509 5.75615 19.2509 6.41038 18.8474 6.8139L13.5613 12.1L18.8474 17.3861C19.2509 17.7896 19.2509 18.4439 18.8474 18.8474C18.4439 19.2509 17.7897 19.2509 17.3861 18.8474L12.1 13.5613L6.81396 18.8474C6.41044 19.2509 5.75621 19.2509 5.35269 18.8474C4.94917 18.4439 4.94917 17.7896 5.35269 17.3861L10.6388 12.1L5.35269 6.8139C4.94917 6.41038 4.94917 5.75615 5.35269 5.35263C5.75621 4.94911 6.41044 4.94911 6.81396 5.35263L12.1 10.6387L17.3861 5.35263Z" fill="#000" />
</svg>
